<?xml version="1.0" encoding="utf-8"?>
<!-- Generator: Adobe Illustrator 16.0.0, SVG Export Plug-In . SVG Version: 6.00 Build 0)  -->
<!DOCTYPE svg PUBLIC "-//W3C//DTD SVG 1.1//EN" "http://www.w3.org/Graphics/SVG/1.1/DTD/svg11.dtd">
<svg version="1.1" id="Livello_2" xmlns="http://www.w3.org/2000/svg" xmlns:xlink="http://www.w3.org/1999/xlink" x="0px" y="0px"
	 width="400px" height="442.519px" viewBox="0 0 400 442.519" enable-background="new 0 0 400 442.519" xml:space="preserve">
<g>
	<g>
		<g>
			<g>
				<rect x="152.297" y="103.477" fill="#F1625C" width="9.963" height="31.788"/>
				<rect x="171.274" y="103.477" fill="#F1625C" width="9.963" height="31.788"/>
				<rect x="190.252" y="103.477" fill="#F1625C" width="9.963" height="31.788"/>
				<rect x="209.23" y="103.477" fill="#F1625C" width="9.963" height="31.788"/>
				<rect x="228.208" y="103.477" fill="#F1625C" width="9.963" height="31.788"/>
			</g>
		</g>
		<path fill="#F1625C" d="M157.359,101.302c9.605-4.47,0-16.73,0-16.73s0.664,1.328-3.296,5.976
			C151.305,93.784,154.04,101.17,157.359,101.302z"/>
		<path fill="#F1625C" d="M176.337,101.302c9.604-4.47,0-16.73,0-16.73S177,85.9,173.04,90.547
			C170.282,93.784,173.017,101.17,176.337,101.302z"/>
		<path fill="#F1625C" d="M195.314,101.302c9.605-4.47,0-16.73,0-16.73s0.664,1.328-3.296,5.976
			C189.26,93.784,191.995,101.17,195.314,101.302z"/>
		<path fill="#F1625C" d="M214.292,101.302c9.604-4.47,0-16.73,0-16.73s0.664,1.328-3.297,5.976
			C208.238,93.784,210.973,101.17,214.292,101.302z"/>
		<path fill="#F1625C" d="M233.27,101.302c9.605-4.47,0-16.73,0-16.73s0.664,1.328-3.296,5.976
			C227.215,93.784,229.95,101.17,233.27,101.302z"/>
	</g>
	<g>
		<polygon fill="#F1625C" points="284.808,197.57 105.749,197.57 85.259,197.57 85.259,243.411 105.749,243.411 284.808,243.411 
			305.298,243.411 305.298,197.57 		"/>
		<polygon fill="#E05555" points="330.982,220.491 308.738,220.491 308.738,246.481 279.613,246.481 279.613,266.332 
			330.982,266.332 342.786,243.411 		"/>
		<polygon fill="#E05555" points="81.819,246.481 81.819,220.491 60.435,220.491 48.631,243.411 60.435,266.332 111.804,266.332 
			111.804,246.481 		"/>
	</g>
	<g>
		<text transform="matrix(0.897 0 0 1 116.4644 182.6421)" fill="#636464" font-family="'Arvo'" font-size="49.8986">HAPPY</text>
	</g>
	
		<text transform="matrix(0.8524 0 0 1 110.7974 234.0151)" fill="#EBEBDF" font-family="'CaviarDreams'" font-size="36.2339" letter-spacing="7.039">BIRTHDAY</text>
	<g>
		<text transform="matrix(1 0 0 1 116.4644 307.6401)" fill="#636464" font-family="'JosefinSlab'" font-size="34.0161">ANDREW</text>
	</g>
	<g>
		<g>
			<g>
				<line fill="none" stroke="#EBEBDF" stroke-miterlimit="10" x1="84.85" y1="200.653" x2="85.35" y2="200.653"/>
				
					<line fill="none" stroke="#EBEBDF" stroke-miterlimit="10" stroke-dasharray="1.0062,2.0123" x1="87.362" y1="200.653" x2="303.69" y2="200.653"/>
				<line fill="none" stroke="#EBEBDF" stroke-miterlimit="10" x1="304.696" y1="200.653" x2="305.196" y2="200.653"/>
			</g>
		</g>
		<g>
			<g>
				<line fill="none" stroke="#EBEBDF" stroke-miterlimit="10" x1="84.85" y1="240.684" x2="85.35" y2="240.684"/>
				
					<line fill="none" stroke="#EBEBDF" stroke-miterlimit="10" stroke-dasharray="1.0062,2.0123" x1="87.362" y1="240.684" x2="303.69" y2="240.684"/>
				<line fill="none" stroke="#EBEBDF" stroke-miterlimit="10" x1="304.696" y1="240.684" x2="305.196" y2="240.684"/>
			</g>
		</g>
	</g>
	<g>
		<rect x="126.09" y="262.747" fill="#636464" width="3.584" height="3.585"/>
		<rect x="138.422" y="262.747" fill="#636464" width="3.584" height="3.585"/>
		<rect x="150.754" y="262.747" fill="#636464" width="3.584" height="3.585"/>
		<rect x="163.086" y="262.747" fill="#636464" width="3.584" height="3.585"/>
		<rect x="175.418" y="262.747" fill="#636464" width="3.585" height="3.585"/>
		<rect x="187.75" y="262.747" fill="#636464" width="3.584" height="3.585"/>
		<rect x="200.082" y="262.747" fill="#636464" width="3.584" height="3.585"/>
		<rect x="212.414" y="262.747" fill="#636464" width="3.585" height="3.585"/>
		<rect x="224.746" y="262.747" fill="#636464" width="3.584" height="3.585"/>
		<rect x="237.078" y="262.747" fill="#636464" width="3.585" height="3.585"/>
		<rect x="249.41" y="262.747" fill="#636464" width="3.585" height="3.585"/>
		<rect x="261.742" y="262.747" fill="#636464" width="3.585" height="3.585"/>
	</g>
</g>
</svg>
