<?xml version="1.0" encoding="utf-8"?>
<!-- Generator: Adobe Illustrator 16.0.0, SVG Export Plug-In . SVG Version: 6.00 Build 0)  -->
<!DOCTYPE svg PUBLIC "-//W3C//DTD SVG 1.1//EN" "http://www.w3.org/Graphics/SVG/1.1/DTD/svg11.dtd">
<svg version="1.1" id="Livello_2" xmlns="http://www.w3.org/2000/svg" xmlns:xlink="http://www.w3.org/1999/xlink" x="0px" y="0px"
	 width="653.967px" height="616.469px" viewBox="0 0 653.967 616.469" enable-background="new 0 0 653.967 616.469"
	 xml:space="preserve">
<g>
	<g>
		<g>
			<g>
				<rect x="283.794" y="223.471" fill="#1DE9B6" width="9.963" height="31.788"/>
				<rect x="302.771" y="223.471" fill="#1DE9B6" width="9.963" height="31.788"/>
				<rect x="321.75" y="223.471" fill="#1DE9B6" width="9.963" height="31.788"/>
				<rect x="340.727" y="223.471" fill="#1DE9B6" width="9.963" height="31.788"/>
				<rect x="359.705" y="223.471" fill="#1DE9B6" width="9.963" height="31.788"/>
			</g>
		</g>
		<path fill="#1DE9B6" d="M288.856,221.296c9.605-4.47,0-16.73,0-16.73s0.664,1.328-3.296,5.976
			C282.802,213.777,285.537,221.164,288.856,221.296z"/>
		<path fill="#1DE9B6" d="M307.834,221.296c9.604-4.47,0-16.73,0-16.73s0.664,1.328-3.297,5.976
			C301.779,213.777,304.514,221.164,307.834,221.296z"/>
		<path fill="#1DE9B6" d="M326.812,221.296c9.605-4.47,0-16.73,0-16.73s0.664,1.328-3.296,5.976
			C320.757,213.777,323.492,221.164,326.812,221.296z"/>
		<path fill="#1DE9B6" d="M345.79,221.296c9.604-4.47,0-16.73,0-16.73s0.664,1.328-3.297,5.976
			C339.735,213.777,342.47,221.164,345.79,221.296z"/>
		<path fill="#1DE9B6" d="M364.767,221.296c9.605-4.47,0-16.73,0-16.73s0.664,1.328-3.296,5.976
			C358.712,213.777,361.447,221.164,364.767,221.296z"/>
	</g>
	<g>
		<polygon fill="#1DE9B6" points="416.305,317.563 237.246,317.563 216.756,317.563 216.756,363.404 237.246,363.404 
			416.305,363.404 436.795,363.404 436.795,317.563 		"/>
		<polygon fill="#1DE9B6" points="462.479,340.484 440.235,340.484 440.235,366.475 411.11,366.475 411.11,386.325 462.479,386.325 
			474.283,363.404 		"/>
		<polygon fill="#1DE9B6" points="213.316,366.475 213.316,340.484 191.932,340.484 180.128,363.404 191.932,386.325 
			243.301,386.325 243.301,366.475 		"/>
	</g>
	<g>
		<text transform="matrix(0.897 0 0 1 247.9614 302.6357)" fill="#FFFFFF" font-family="'Arvo'" font-size="49.8986">HAPPY</text>
	</g>
	
		<text transform="matrix(0.8524 0 0 1 242.2944 354.0088)" fill="#FFFFFF" font-family="'CaviarDreams'" font-size="36.2339" letter-spacing="7.039">BIRTHDAY</text>
	<g>
		<text transform="matrix(1 0 0 1 247.9614 427.6338)" fill="#FFFFFF" font-family="'JosefinSlab'" font-size="34.0161">ANDREW</text>
	</g>
	<g>
		<g>
			<g>
				<line fill="none" stroke="#EBEBDF" stroke-miterlimit="10" x1="216.347" y1="320.646" x2="216.847" y2="320.646"/>
				
					<line fill="none" stroke="#EBEBDF" stroke-miterlimit="10" stroke-dasharray="1.0062,2.0123" x1="218.859" y1="320.646" x2="435.188" y2="320.646"/>
				<line fill="none" stroke="#EBEBDF" stroke-miterlimit="10" x1="436.193" y1="320.646" x2="436.693" y2="320.646"/>
			</g>
		</g>
		<g>
			<g>
				<line fill="none" stroke="#EBEBDF" stroke-miterlimit="10" x1="216.347" y1="360.678" x2="216.847" y2="360.678"/>
				
					<line fill="none" stroke="#EBEBDF" stroke-miterlimit="10" stroke-dasharray="1.0062,2.0123" x1="218.859" y1="360.678" x2="435.188" y2="360.678"/>
				<line fill="none" stroke="#EBEBDF" stroke-miterlimit="10" x1="436.193" y1="360.678" x2="436.693" y2="360.678"/>
			</g>
		</g>
	</g>
	<g>
		<rect x="257.587" y="382.74" fill="#FCFCFC" width="3.584" height="3.585"/>
		<rect x="269.919" y="382.74" fill="#FCFCFC" width="3.584" height="3.585"/>
		<rect x="282.251" y="382.74" fill="#FCFCFC" width="3.584" height="3.585"/>
		<rect x="294.583" y="382.74" fill="#FCFCFC" width="3.584" height="3.585"/>
		<rect x="306.915" y="382.74" fill="#FCFCFC" width="3.585" height="3.585"/>
		<rect x="319.247" y="382.74" fill="#FCFCFC" width="3.584" height="3.585"/>
		<rect x="331.579" y="382.74" fill="#FCFCFC" width="3.584" height="3.585"/>
		<rect x="343.911" y="382.74" fill="#FCFCFC" width="3.585" height="3.585"/>
		<rect x="356.243" y="382.74" fill="#FCFCFC" width="3.584" height="3.585"/>
		<rect x="368.575" y="382.74" fill="#FCFCFC" width="3.585" height="3.585"/>
		<rect x="380.907" y="382.74" fill="#FCFCFC" width="3.585" height="3.585"/>
		<rect x="393.239" y="382.74" fill="#FCFCFC" width="3.585" height="3.585"/>
	</g>
</g>
</svg>
